<svg xmlns="http://www.w3.org/2000/svg" xmlns:xlink="http://www.w3.org/1999/xlink" width="500" zoomAndPan="magnify" viewBox="0 0 375 374.999991" height="500" preserveAspectRatio="xMidYMid meet" version="1.0"><defs><g/><clipPath id="7742da6512"><path d="M 43.488281 283.832031 L 67.261719 283.832031 L 67.261719 304.972656 L 43.488281 304.972656 Z M 43.488281 283.832031 " clip-rule="nonzero"/></clipPath><clipPath id="fcd927d51d"><path d="M 45.820312 283.914062 L 64.996094 283.914062 C 66.238281 283.914062 67.246094 284.921875 67.246094 286.164062 L 67.246094 302.722656 C 67.246094 303.964844 66.238281 304.972656 64.996094 304.972656 L 45.820312 304.972656 C 44.578125 304.972656 43.570312 303.964844 43.570312 302.722656 L 43.570312 286.164062 C 43.570312 284.921875 44.578125 283.914062 45.820312 283.914062 Z M 45.820312 283.914062 " clip-rule="nonzero"/></clipPath><clipPath id="c001028314"><path d="M 36 259 L 79.371094 259 L 79.371094 293.875 L 36 293.875 Z M 36 259 " clip-rule="nonzero"/></clipPath><clipPath id="63e2969c70"><path d="M 40.53125 259.09375 L 74.792969 259.09375 C 75.984375 259.09375 77.128906 259.570312 77.972656 260.414062 C 78.816406 261.257812 79.292969 262.402344 79.292969 263.59375 L 79.292969 289.375 C 79.292969 290.570312 78.816406 291.714844 77.972656 292.558594 C 77.128906 293.402344 75.984375 293.875 74.792969 293.875 L 40.53125 293.875 C 39.335938 293.875 38.191406 293.402344 37.347656 292.558594 C 36.503906 291.714844 36.03125 290.570312 36.03125 289.375 L 36.03125 263.59375 C 36.03125 262.402344 36.503906 261.257812 37.347656 260.414062 C 38.191406 259.570312 39.335938 259.09375 40.53125 259.09375 Z M 40.53125 259.09375 " clip-rule="nonzero"/></clipPath><clipPath id="ce444378a3"><path d="M 122.53125 259 L 166 259 L 166 293.875 L 122.53125 293.875 Z M 122.53125 259 " clip-rule="nonzero"/></clipPath><clipPath id="f82cdcd150"><path d="M 127.167969 259.09375 L 161.429688 259.09375 C 162.621094 259.09375 163.765625 259.570312 164.609375 260.414062 C 165.457031 261.257812 165.929688 262.402344 165.929688 263.59375 L 165.929688 289.375 C 165.929688 290.570312 165.457031 291.714844 164.609375 292.558594 C 163.765625 293.402344 162.621094 293.875 161.429688 293.875 L 127.167969 293.875 C 125.972656 293.875 124.828125 293.402344 123.984375 292.558594 C 123.140625 291.714844 122.667969 290.570312 122.667969 289.375 L 122.667969 263.59375 C 122.667969 262.402344 123.140625 261.257812 123.984375 260.414062 C 124.828125 259.570312 125.972656 259.09375 127.167969 259.09375 Z M 127.167969 259.09375 " clip-rule="nonzero"/></clipPath><clipPath id="7d98aea18d"><path d="M 130.644531 282.019531 L 157.320312 282.019531 L 157.320312 305.734375 L 130.644531 305.734375 Z M 130.644531 282.019531 " clip-rule="nonzero"/></clipPath><clipPath id="3981747587"><path d="M 132.894531 282.019531 L 155.054688 282.019531 C 156.296875 282.019531 157.304688 283.027344 157.304688 284.269531 L 157.304688 303.484375 C 157.304688 304.726562 156.296875 305.734375 155.054688 305.734375 L 132.894531 305.734375 C 131.648438 305.734375 130.644531 304.726562 130.644531 303.484375 L 130.644531 284.269531 C 130.644531 283.027344 131.648438 282.019531 132.894531 282.019531 Z M 132.894531 282.019531 " clip-rule="nonzero"/></clipPath><clipPath id="57505ac778"><path d="M 209.050781 259 L 252.527344 259 L 252.527344 293.875 L 209.050781 293.875 Z M 209.050781 259 " clip-rule="nonzero"/></clipPath><clipPath id="98e56d0242"><path d="M 213.6875 259.09375 L 247.949219 259.09375 C 249.144531 259.09375 250.289062 259.570312 251.132812 260.414062 C 251.976562 261.257812 252.449219 262.402344 252.449219 263.59375 L 252.449219 289.375 C 252.449219 290.570312 251.976562 291.714844 251.132812 292.558594 C 250.289062 293.402344 249.144531 293.875 247.949219 293.875 L 213.6875 293.875 C 212.496094 293.875 211.351562 293.402344 210.507812 292.558594 C 209.664062 291.714844 209.1875 290.570312 209.1875 289.375 L 209.1875 263.59375 C 209.1875 262.402344 209.664062 261.257812 210.507812 260.414062 C 211.351562 259.570312 212.496094 259.09375 213.6875 259.09375 Z M 213.6875 259.09375 " clip-rule="nonzero"/></clipPath><clipPath id="e855303993"><path d="M 217.164062 282.019531 L 243.839844 282.019531 L 243.839844 305.734375 L 217.164062 305.734375 Z M 217.164062 282.019531 " clip-rule="nonzero"/></clipPath><clipPath id="ec3b8a8f9a"><path d="M 219.414062 282.019531 L 241.574219 282.019531 C 242.816406 282.019531 243.824219 283.027344 243.824219 284.269531 L 243.824219 303.484375 C 243.824219 304.726562 242.816406 305.734375 241.574219 305.734375 L 219.414062 305.734375 C 218.171875 305.734375 217.164062 304.726562 217.164062 303.484375 L 217.164062 284.269531 C 217.164062 283.027344 218.171875 282.019531 219.414062 282.019531 Z M 219.414062 282.019531 " clip-rule="nonzero"/></clipPath><clipPath id="6eef3adcff"><path d="M 295.574219 259 L 339 259 L 339 293.875 L 295.574219 293.875 Z M 295.574219 259 " clip-rule="nonzero"/></clipPath><clipPath id="93fd66d20d"><path d="M 300.207031 259.09375 L 334.46875 259.09375 C 335.664062 259.09375 336.808594 259.570312 337.652344 260.414062 C 338.496094 261.257812 338.96875 262.402344 338.96875 263.59375 L 338.96875 289.375 C 338.96875 290.570312 338.496094 291.714844 337.652344 292.558594 C 336.808594 293.402344 335.664062 293.875 334.46875 293.875 L 300.207031 293.875 C 299.015625 293.875 297.871094 293.402344 297.027344 292.558594 C 296.183594 291.714844 295.707031 290.570312 295.707031 289.375 L 295.707031 263.59375 C 295.707031 262.402344 296.183594 261.257812 297.027344 260.414062 C 297.871094 259.570312 299.015625 259.09375 300.207031 259.09375 Z M 300.207031 259.09375 " clip-rule="nonzero"/></clipPath><clipPath id="1abeca5a26"><path d="M 303.683594 282.019531 L 330.359375 282.019531 L 330.359375 305.734375 L 303.683594 305.734375 Z M 303.683594 282.019531 " clip-rule="nonzero"/></clipPath><clipPath id="bbc7dabef4"><path d="M 305.933594 282.019531 L 328.09375 282.019531 C 329.335938 282.019531 330.34375 283.027344 330.34375 284.269531 L 330.34375 303.484375 C 330.34375 304.726562 329.335938 305.734375 328.09375 305.734375 L 305.933594 305.734375 C 304.691406 305.734375 303.683594 304.726562 303.683594 303.484375 L 303.683594 284.269531 C 303.683594 283.027344 304.691406 282.019531 305.933594 282.019531 Z M 305.933594 282.019531 " clip-rule="nonzero"/></clipPath><clipPath id="11163c1b43"><path d="M 36 81 L 79.371094 81 L 79.371094 115.90625 L 36 115.90625 Z M 36 81 " clip-rule="nonzero"/></clipPath><clipPath id="40a2a658e6"><path d="M 40.53125 81.125 L 74.792969 81.125 C 75.984375 81.125 77.128906 81.597656 77.972656 82.441406 C 78.816406 83.285156 79.292969 84.429688 79.292969 85.625 L 79.292969 111.40625 C 79.292969 112.597656 78.816406 113.742188 77.972656 114.585938 C 77.128906 115.429688 75.984375 115.90625 74.792969 115.90625 L 40.53125 115.90625 C 39.335938 115.90625 38.191406 115.429688 37.347656 114.585938 C 36.503906 113.742188 36.03125 112.597656 36.03125 111.40625 L 36.03125 85.625 C 36.03125 84.429688 36.503906 83.285156 37.347656 82.441406 C 38.191406 81.597656 39.335938 81.125 40.53125 81.125 Z M 40.53125 81.125 " clip-rule="nonzero"/></clipPath><clipPath id="ae31c6ca6e"><path d="M 44.003906 69.265625 L 70.683594 69.265625 L 70.683594 92.980469 L 44.003906 92.980469 Z M 44.003906 69.265625 " clip-rule="nonzero"/></clipPath><clipPath id="64c7c2f1de"><path d="M 46.253906 69.265625 L 68.414062 69.265625 C 69.65625 69.265625 70.664062 70.273438 70.664062 71.515625 L 70.664062 90.730469 C 70.664062 91.972656 69.65625 92.980469 68.414062 92.980469 L 46.253906 92.980469 C 45.011719 92.980469 44.003906 91.972656 44.003906 90.730469 L 44.003906 71.515625 C 44.003906 70.273438 45.011719 69.265625 46.253906 69.265625 Z M 46.253906 69.265625 " clip-rule="nonzero"/></clipPath><clipPath id="6efdc0e52c"><path d="M 122.53125 81 L 166 81 L 166 115.90625 L 122.53125 115.90625 Z M 122.53125 81 " clip-rule="nonzero"/></clipPath><clipPath id="d0757b3179"><path d="M 127.167969 81.125 L 161.429688 81.125 C 162.621094 81.125 163.765625 81.597656 164.609375 82.441406 C 165.457031 83.285156 165.929688 84.429688 165.929688 85.625 L 165.929688 111.40625 C 165.929688 112.597656 165.457031 113.742188 164.609375 114.585938 C 163.765625 115.429688 162.621094 115.90625 161.429688 115.90625 L 127.167969 115.90625 C 125.972656 115.90625 124.828125 115.429688 123.984375 114.585938 C 123.140625 113.742188 122.667969 112.597656 122.667969 111.40625 L 122.667969 85.625 C 122.667969 84.429688 123.140625 83.285156 123.984375 82.441406 C 124.828125 81.597656 125.972656 81.125 127.167969 81.125 Z M 127.167969 81.125 " clip-rule="nonzero"/></clipPath><clipPath id="64ac93d224"><path d="M 130.644531 69.265625 L 157.320312 69.265625 L 157.320312 92.980469 L 130.644531 92.980469 Z M 130.644531 69.265625 " clip-rule="nonzero"/></clipPath><clipPath id="51234d9e49"><path d="M 132.894531 69.265625 L 155.054688 69.265625 C 156.296875 69.265625 157.304688 70.273438 157.304688 71.515625 L 157.304688 90.730469 C 157.304688 91.972656 156.296875 92.980469 155.054688 92.980469 L 132.894531 92.980469 C 131.648438 92.980469 130.644531 91.972656 130.644531 90.730469 L 130.644531 71.515625 C 130.644531 70.273438 131.648438 69.265625 132.894531 69.265625 Z M 132.894531 69.265625 " clip-rule="nonzero"/></clipPath><clipPath id="278fe3e4d0"><path d="M 209.050781 81 L 252.527344 81 L 252.527344 115.90625 L 209.050781 115.90625 Z M 209.050781 81 " clip-rule="nonzero"/></clipPath><clipPath id="2eb7fd344c"><path d="M 213.6875 81.125 L 247.949219 81.125 C 249.144531 81.125 250.289062 81.597656 251.132812 82.441406 C 251.976562 83.285156 252.449219 84.429688 252.449219 85.625 L 252.449219 111.40625 C 252.449219 112.597656 251.976562 113.742188 251.132812 114.585938 C 250.289062 115.429688 249.144531 115.90625 247.949219 115.90625 L 213.6875 115.90625 C 212.496094 115.90625 211.351562 115.429688 210.507812 114.585938 C 209.664062 113.742188 209.1875 112.597656 209.1875 111.40625 L 209.1875 85.625 C 209.1875 84.429688 209.664062 83.285156 210.507812 82.441406 C 211.351562 81.597656 212.496094 81.125 213.6875 81.125 Z M 213.6875 81.125 " clip-rule="nonzero"/></clipPath><clipPath id="05e375c030"><path d="M 217.164062 69.265625 L 243.839844 69.265625 L 243.839844 92.980469 L 217.164062 92.980469 Z M 217.164062 69.265625 " clip-rule="nonzero"/></clipPath><clipPath id="ee6f2f0295"><path d="M 219.414062 69.265625 L 241.574219 69.265625 C 242.816406 69.265625 243.824219 70.273438 243.824219 71.515625 L 243.824219 90.730469 C 243.824219 91.972656 242.816406 92.980469 241.574219 92.980469 L 219.414062 92.980469 C 218.171875 92.980469 217.164062 91.972656 217.164062 90.730469 L 217.164062 71.515625 C 217.164062 70.273438 218.171875 69.265625 219.414062 69.265625 Z M 219.414062 69.265625 " clip-rule="nonzero"/></clipPath><clipPath id="fab994b24e"><path d="M 295.574219 81 L 339 81 L 339 115.90625 L 295.574219 115.90625 Z M 295.574219 81 " clip-rule="nonzero"/></clipPath><clipPath id="fbef63484d"><path d="M 300.207031 81.125 L 334.46875 81.125 C 335.664062 81.125 336.808594 81.597656 337.652344 82.441406 C 338.496094 83.285156 338.96875 84.429688 338.96875 85.625 L 338.96875 111.40625 C 338.96875 112.597656 338.496094 113.742188 337.652344 114.585938 C 336.808594 115.429688 335.664062 115.90625 334.46875 115.90625 L 300.207031 115.90625 C 299.015625 115.90625 297.871094 115.429688 297.027344 114.585938 C 296.183594 113.742188 295.707031 112.597656 295.707031 111.40625 L 295.707031 85.625 C 295.707031 84.429688 296.183594 83.285156 297.027344 82.441406 C 297.871094 81.597656 299.015625 81.125 300.207031 81.125 Z M 300.207031 81.125 " clip-rule="nonzero"/></clipPath><clipPath id="4c7d85e25e"><path d="M 2.460938 107.914062 L 372.800781 107.914062 L 372.800781 267.253906 L 2.460938 267.253906 Z M 2.460938 107.914062 " clip-rule="nonzero"/></clipPath><clipPath id="7389523aa1"><path d="M 36.960938 107.914062 L 338.039062 107.914062 C 347.1875 107.914062 355.960938 111.546875 362.433594 118.019531 C 368.902344 124.488281 372.539062 133.265625 372.539062 142.414062 L 372.539062 232.753906 C 372.539062 241.902344 368.902344 250.679688 362.433594 257.148438 C 355.960938 263.617188 347.1875 267.253906 338.039062 267.253906 L 36.960938 267.253906 C 27.8125 267.253906 19.039062 263.617188 12.566406 257.148438 C 6.097656 250.679688 2.460938 241.902344 2.460938 232.753906 L 2.460938 142.414062 C 2.460938 133.265625 6.097656 124.488281 12.566406 118.019531 C 19.039062 111.546875 27.8125 107.914062 36.960938 107.914062 Z M 36.960938 107.914062 " clip-rule="nonzero"/></clipPath><clipPath id="e5d4aefa4f"><path d="M 2.472656 107.914062 L 372.210938 107.914062 L 372.210938 266.914062 L 2.472656 266.914062 Z M 2.472656 107.914062 " clip-rule="nonzero"/></clipPath><clipPath id="cca20bd390"><path d="M 36.96875 107.914062 L 338.023438 107.914062 C 347.171875 107.914062 355.945312 111.546875 362.417969 118.019531 C 368.886719 124.488281 372.519531 133.261719 372.519531 142.410156 L 372.519531 232.746094 C 372.519531 241.894531 368.886719 250.667969 362.417969 257.136719 C 355.945312 263.605469 347.171875 267.242188 338.023438 267.242188 L 36.96875 267.242188 C 27.820312 267.242188 19.042969 263.605469 12.574219 257.136719 C 6.105469 250.667969 2.472656 241.894531 2.472656 232.746094 L 2.472656 142.410156 C 2.472656 133.261719 6.105469 124.488281 12.574219 118.019531 C 19.042969 111.546875 27.820312 107.914062 36.96875 107.914062 Z M 36.96875 107.914062 " clip-rule="nonzero"/></clipPath><clipPath id="c35175bc07"><path d="M 303.683594 69.265625 L 330.359375 69.265625 L 330.359375 92.980469 L 303.683594 92.980469 Z M 303.683594 69.265625 " clip-rule="nonzero"/></clipPath><clipPath id="04ded972b2"><path d="M 305.933594 69.265625 L 328.09375 69.265625 C 329.335938 69.265625 330.34375 70.273438 330.34375 71.515625 L 330.34375 90.730469 C 330.34375 91.972656 329.335938 92.980469 328.09375 92.980469 L 305.933594 92.980469 C 304.691406 92.980469 303.683594 91.972656 303.683594 90.730469 L 303.683594 71.515625 C 303.683594 70.273438 304.691406 69.265625 305.933594 69.265625 Z M 305.933594 69.265625 " clip-rule="nonzero"/></clipPath></defs><g clip-path="url(#7742da6512)"><g clip-path="url(#fcd927d51d)"><path fill="#727880" d="M 43.570312 283.914062 L 67.261719 283.914062 L 67.261719 304.972656 L 43.570312 304.972656 Z M 43.570312 283.914062 " fill-opacity="1" fill-rule="nonzero"/></g></g><g clip-path="url(#c001028314)"><g clip-path="url(#63e2969c70)"><path fill="#727880" d="M 36.03125 259.09375 L 79.234375 259.09375 L 79.234375 293.875 L 36.03125 293.875 Z M 36.03125 259.09375 " fill-opacity="1" fill-rule="nonzero"/></g></g><g clip-path="url(#ce444378a3)"><g clip-path="url(#f82cdcd150)"><path fill="#727880" d="M 122.667969 259.09375 L 165.871094 259.09375 L 165.871094 293.875 L 122.667969 293.875 Z M 122.667969 259.09375 " fill-opacity="1" fill-rule="nonzero"/></g></g><g clip-path="url(#7d98aea18d)"><g clip-path="url(#3981747587)"><path fill="#727880" d="M 130.644531 282.019531 L 157.320312 282.019531 L 157.320312 305.734375 L 130.644531 305.734375 Z M 130.644531 282.019531 " fill-opacity="1" fill-rule="nonzero"/></g></g><g clip-path="url(#57505ac778)"><g clip-path="url(#98e56d0242)"><path fill="#727880" d="M 209.1875 259.09375 L 252.390625 259.09375 L 252.390625 293.875 L 209.1875 293.875 Z M 209.1875 259.09375 " fill-opacity="1" fill-rule="nonzero"/></g></g><g clip-path="url(#e855303993)"><g clip-path="url(#ec3b8a8f9a)"><path fill="#727880" d="M 217.164062 282.019531 L 243.839844 282.019531 L 243.839844 305.734375 L 217.164062 305.734375 Z M 217.164062 282.019531 " fill-opacity="1" fill-rule="nonzero"/></g></g><g clip-path="url(#6eef3adcff)"><g clip-path="url(#93fd66d20d)"><path fill="#727880" d="M 295.707031 259.09375 L 338.914062 259.09375 L 338.914062 293.875 L 295.707031 293.875 Z M 295.707031 259.09375 " fill-opacity="1" fill-rule="nonzero"/></g></g><g clip-path="url(#1abeca5a26)"><g clip-path="url(#bbc7dabef4)"><path fill="#727880" d="M 303.683594 282.019531 L 330.359375 282.019531 L 330.359375 305.734375 L 303.683594 305.734375 Z M 303.683594 282.019531 " fill-opacity="1" fill-rule="nonzero"/></g></g><g clip-path="url(#11163c1b43)"><g clip-path="url(#40a2a658e6)"><path fill="#727880" d="M 36.03125 81.125 L 79.234375 81.125 L 79.234375 115.90625 L 36.03125 115.90625 Z M 36.03125 81.125 " fill-opacity="1" fill-rule="nonzero"/></g></g><g clip-path="url(#ae31c6ca6e)"><g clip-path="url(#64c7c2f1de)"><path fill="#727880" d="M 44.003906 69.265625 L 70.683594 69.265625 L 70.683594 92.980469 L 44.003906 92.980469 Z M 44.003906 69.265625 " fill-opacity="1" fill-rule="nonzero"/></g></g><g clip-path="url(#6efdc0e52c)"><g clip-path="url(#d0757b3179)"><path fill="#727880" d="M 122.667969 81.125 L 165.871094 81.125 L 165.871094 115.90625 L 122.667969 115.90625 Z M 122.667969 81.125 " fill-opacity="1" fill-rule="nonzero"/></g></g><g clip-path="url(#64ac93d224)"><g clip-path="url(#51234d9e49)"><path fill="#727880" d="M 130.644531 69.265625 L 157.320312 69.265625 L 157.320312 92.980469 L 130.644531 92.980469 Z M 130.644531 69.265625 " fill-opacity="1" fill-rule="nonzero"/></g></g><g clip-path="url(#278fe3e4d0)"><g clip-path="url(#2eb7fd344c)"><path fill="#727880" d="M 209.1875 81.125 L 252.390625 81.125 L 252.390625 115.90625 L 209.1875 115.90625 Z M 209.1875 81.125 " fill-opacity="1" fill-rule="nonzero"/></g></g><g clip-path="url(#05e375c030)"><g clip-path="url(#ee6f2f0295)"><path fill="#727880" d="M 217.164062 69.265625 L 243.839844 69.265625 L 243.839844 92.980469 L 217.164062 92.980469 Z M 217.164062 69.265625 " fill-opacity="1" fill-rule="nonzero"/></g></g><g clip-path="url(#fab994b24e)"><g clip-path="url(#fbef63484d)"><path fill="#727880" d="M 295.707031 81.125 L 338.914062 81.125 L 338.914062 115.90625 L 295.707031 115.90625 Z M 295.707031 81.125 " fill-opacity="1" fill-rule="nonzero"/></g></g><g clip-path="url(#4c7d85e25e)"><g clip-path="url(#7389523aa1)"><path fill="#0e1018" d="M 2.460938 107.914062 L 372.800781 107.914062 L 372.800781 267.253906 L 2.460938 267.253906 Z M 2.460938 107.914062 " fill-opacity="1" fill-rule="nonzero"/></g></g><g clip-path="url(#e5d4aefa4f)"><g clip-path="url(#cca20bd390)"><path stroke-linecap="butt" transform="matrix(0.75, 0, 0, 0.75, 2.470984, 107.913787)" fill="none" stroke-linejoin="miter" d="M 45.997024 0.000366915 L 447.403301 0.000366915 C 459.601218 0.000366915 471.299136 4.844117 479.929344 13.474326 C 488.554345 22.099327 493.398095 33.797244 493.398095 45.995162 L 493.398095 166.443086 C 493.398095 178.641004 488.554345 190.338921 479.929344 198.963922 C 471.299136 207.588922 459.601218 212.437881 447.403301 212.437881 L 45.997024 212.437881 C 33.799107 212.437881 22.095981 207.588922 13.470981 198.963922 C 4.84598 190.338921 0.00222963 178.641004 0.00222963 166.443086 L 0.00222963 45.995162 C 0.00222963 33.797244 4.84598 22.099327 13.470981 13.474326 C 22.095981 4.844117 33.799107 0.000366915 45.997024 0.000366915 Z M 45.997024 0.000366915 " stroke="#00bf63" stroke-width="44" stroke-opacity="1" stroke-miterlimit="4"/></g></g><g clip-path="url(#c35175bc07)"><g clip-path="url(#04ded972b2)"><path fill="#727880" d="M 303.683594 69.265625 L 330.359375 69.265625 L 330.359375 92.980469 L 303.683594 92.980469 Z M 303.683594 69.265625 " fill-opacity="1" fill-rule="nonzero"/></g></g><g fill="#9c2efa" fill-opacity="1"><g transform="translate(127.409841, 214.403262)"><g><path d="M 32.5 -19.78125 L 38.109375 -19.78125 L 38.109375 -10.15625 L 32.5 -10.15625 L 32.5 0 L 22.234375 0 L 22.234375 -10.15625 L -1.453125 -10.15625 L -1.453125 -13.421875 L 21.65625 -48.140625 L 32.5 -48.140625 Z M 22.234375 -33.5 L 22.125 -33.5 L 13.546875 -19.78125 L 22.234375 -19.78125 Z M 22.234375 -33.5 "/></g></g></g><g fill="#ffffff" fill-opacity="1"><g transform="translate(166.282572, 214.403262)"><g><path d="M 1.640625 -24.046875 C 1.640625 -31.984375 3.523438 -38.128906 7.296875 -42.484375 C 11.066406 -46.835938 15.710938 -49.015625 21.234375 -49.015625 C 26.765625 -49.015625 31.40625 -46.835938 35.15625 -42.484375 C 38.914062 -38.128906 40.796875 -31.984375 40.796875 -24.046875 C 40.796875 -19.722656 40.269531 -15.925781 39.21875 -12.65625 C 38.164062 -9.394531 36.710938 -6.800781 34.859375 -4.875 C 33.015625 -2.945312 30.953125 -1.503906 28.671875 -0.546875 C 26.398438 0.398438 23.921875 0.875 21.234375 0.875 C 18.554688 0.875 16.078125 0.398438 13.796875 -0.546875 C 11.523438 -1.503906 9.453125 -2.945312 7.578125 -4.875 C 5.710938 -6.800781 4.253906 -9.394531 3.203125 -12.65625 C 2.160156 -15.925781 1.640625 -19.722656 1.640625 -24.046875 Z M 12.71875 -24.046875 C 12.71875 -18.953125 13.457031 -15.128906 14.9375 -12.578125 C 16.414062 -10.023438 18.519531 -8.75 21.25 -8.75 C 23.925781 -8.75 26.003906 -10.023438 27.484375 -12.578125 C 28.960938 -15.128906 29.703125 -18.953125 29.703125 -24.046875 C 29.703125 -28.910156 28.953125 -32.679688 27.453125 -35.359375 C 25.960938 -38.046875 23.894531 -39.390625 21.25 -39.390625 C 18.601562 -39.390625 16.519531 -38.035156 15 -35.328125 C 13.476562 -32.628906 12.71875 -28.867188 12.71875 -24.046875 Z M 12.71875 -24.046875 "/></g></g></g><g fill="#9c2efa" fill-opacity="1"><g transform="translate(208.712652, 214.403262)"><g><path d="M 32.5 -19.78125 L 38.109375 -19.78125 L 38.109375 -10.15625 L 32.5 -10.15625 L 32.5 0 L 22.234375 0 L 22.234375 -10.15625 L -1.453125 -10.15625 L -1.453125 -13.421875 L 21.65625 -48.140625 L 32.5 -48.140625 Z M 22.234375 -33.5 L 22.125 -33.5 L 13.546875 -19.78125 L 22.234375 -19.78125 Z M 22.234375 -33.5 "/></g></g></g></svg>