<svg xmlns="http://www.w3.org/2000/svg" xmlns:xlink="http://www.w3.org/1999/xlink" width="500" zoomAndPan="magnify" viewBox="0 0 375 374.999991" height="500" preserveAspectRatio="xMidYMid meet" version="1.0"><defs><g/><clipPath id="d8391af81a"><path d="M 43.488281 283.832031 L 67.261719 283.832031 L 67.261719 304.972656 L 43.488281 304.972656 Z M 43.488281 283.832031 " clip-rule="nonzero"/></clipPath><clipPath id="d15fbbad91"><path d="M 45.820312 283.914062 L 64.996094 283.914062 C 66.238281 283.914062 67.246094 284.921875 67.246094 286.164062 L 67.246094 302.722656 C 67.246094 303.964844 66.238281 304.972656 64.996094 304.972656 L 45.820312 304.972656 C 44.578125 304.972656 43.570312 303.964844 43.570312 302.722656 L 43.570312 286.164062 C 43.570312 284.921875 44.578125 283.914062 45.820312 283.914062 Z M 45.820312 283.914062 " clip-rule="nonzero"/></clipPath><clipPath id="d044988182"><path d="M 36 259 L 79.371094 259 L 79.371094 293.875 L 36 293.875 Z M 36 259 " clip-rule="nonzero"/></clipPath><clipPath id="acba0bb919"><path d="M 40.53125 259.09375 L 74.792969 259.09375 C 75.984375 259.09375 77.128906 259.570312 77.972656 260.414062 C 78.816406 261.257812 79.292969 262.402344 79.292969 263.59375 L 79.292969 289.375 C 79.292969 290.570312 78.816406 291.714844 77.972656 292.558594 C 77.128906 293.402344 75.984375 293.875 74.792969 293.875 L 40.53125 293.875 C 39.335938 293.875 38.191406 293.402344 37.347656 292.558594 C 36.503906 291.714844 36.03125 290.570312 36.03125 289.375 L 36.03125 263.59375 C 36.03125 262.402344 36.503906 261.257812 37.347656 260.414062 C 38.191406 259.570312 39.335938 259.09375 40.53125 259.09375 Z M 40.53125 259.09375 " clip-rule="nonzero"/></clipPath><clipPath id="e8a72a3d7e"><path d="M 122.53125 259 L 166 259 L 166 293.875 L 122.53125 293.875 Z M 122.53125 259 " clip-rule="nonzero"/></clipPath><clipPath id="97f64cf34a"><path d="M 127.167969 259.09375 L 161.429688 259.09375 C 162.621094 259.09375 163.765625 259.570312 164.609375 260.414062 C 165.457031 261.257812 165.929688 262.402344 165.929688 263.59375 L 165.929688 289.375 C 165.929688 290.570312 165.457031 291.714844 164.609375 292.558594 C 163.765625 293.402344 162.621094 293.875 161.429688 293.875 L 127.167969 293.875 C 125.972656 293.875 124.828125 293.402344 123.984375 292.558594 C 123.140625 291.714844 122.667969 290.570312 122.667969 289.375 L 122.667969 263.59375 C 122.667969 262.402344 123.140625 261.257812 123.984375 260.414062 C 124.828125 259.570312 125.972656 259.09375 127.167969 259.09375 Z M 127.167969 259.09375 " clip-rule="nonzero"/></clipPath><clipPath id="a5b9a49d94"><path d="M 130.644531 282.019531 L 157.320312 282.019531 L 157.320312 305.734375 L 130.644531 305.734375 Z M 130.644531 282.019531 " clip-rule="nonzero"/></clipPath><clipPath id="1f80918072"><path d="M 132.894531 282.019531 L 155.054688 282.019531 C 156.296875 282.019531 157.304688 283.027344 157.304688 284.269531 L 157.304688 303.484375 C 157.304688 304.726562 156.296875 305.734375 155.054688 305.734375 L 132.894531 305.734375 C 131.648438 305.734375 130.644531 304.726562 130.644531 303.484375 L 130.644531 284.269531 C 130.644531 283.027344 131.648438 282.019531 132.894531 282.019531 Z M 132.894531 282.019531 " clip-rule="nonzero"/></clipPath><clipPath id="059c24bd74"><path d="M 209.050781 259 L 252.527344 259 L 252.527344 293.875 L 209.050781 293.875 Z M 209.050781 259 " clip-rule="nonzero"/></clipPath><clipPath id="7d0d988f9e"><path d="M 213.6875 259.09375 L 247.949219 259.09375 C 249.144531 259.09375 250.289062 259.570312 251.132812 260.414062 C 251.976562 261.257812 252.449219 262.402344 252.449219 263.59375 L 252.449219 289.375 C 252.449219 290.570312 251.976562 291.714844 251.132812 292.558594 C 250.289062 293.402344 249.144531 293.875 247.949219 293.875 L 213.6875 293.875 C 212.496094 293.875 211.351562 293.402344 210.507812 292.558594 C 209.664062 291.714844 209.1875 290.570312 209.1875 289.375 L 209.1875 263.59375 C 209.1875 262.402344 209.664062 261.257812 210.507812 260.414062 C 211.351562 259.570312 212.496094 259.09375 213.6875 259.09375 Z M 213.6875 259.09375 " clip-rule="nonzero"/></clipPath><clipPath id="bed83787c3"><path d="M 217.164062 282.019531 L 243.839844 282.019531 L 243.839844 305.734375 L 217.164062 305.734375 Z M 217.164062 282.019531 " clip-rule="nonzero"/></clipPath><clipPath id="5ad6f4399c"><path d="M 219.414062 282.019531 L 241.574219 282.019531 C 242.816406 282.019531 243.824219 283.027344 243.824219 284.269531 L 243.824219 303.484375 C 243.824219 304.726562 242.816406 305.734375 241.574219 305.734375 L 219.414062 305.734375 C 218.171875 305.734375 217.164062 304.726562 217.164062 303.484375 L 217.164062 284.269531 C 217.164062 283.027344 218.171875 282.019531 219.414062 282.019531 Z M 219.414062 282.019531 " clip-rule="nonzero"/></clipPath><clipPath id="d47cbaf0b5"><path d="M 295.574219 259 L 339 259 L 339 293.875 L 295.574219 293.875 Z M 295.574219 259 " clip-rule="nonzero"/></clipPath><clipPath id="8bb81caf39"><path d="M 300.207031 259.09375 L 334.46875 259.09375 C 335.664062 259.09375 336.808594 259.570312 337.652344 260.414062 C 338.496094 261.257812 338.96875 262.402344 338.96875 263.59375 L 338.96875 289.375 C 338.96875 290.570312 338.496094 291.714844 337.652344 292.558594 C 336.808594 293.402344 335.664062 293.875 334.46875 293.875 L 300.207031 293.875 C 299.015625 293.875 297.871094 293.402344 297.027344 292.558594 C 296.183594 291.714844 295.707031 290.570312 295.707031 289.375 L 295.707031 263.59375 C 295.707031 262.402344 296.183594 261.257812 297.027344 260.414062 C 297.871094 259.570312 299.015625 259.09375 300.207031 259.09375 Z M 300.207031 259.09375 " clip-rule="nonzero"/></clipPath><clipPath id="529b7de3d3"><path d="M 303.683594 282.019531 L 330.359375 282.019531 L 330.359375 305.734375 L 303.683594 305.734375 Z M 303.683594 282.019531 " clip-rule="nonzero"/></clipPath><clipPath id="10aeb6dd43"><path d="M 305.933594 282.019531 L 328.09375 282.019531 C 329.335938 282.019531 330.34375 283.027344 330.34375 284.269531 L 330.34375 303.484375 C 330.34375 304.726562 329.335938 305.734375 328.09375 305.734375 L 305.933594 305.734375 C 304.691406 305.734375 303.683594 304.726562 303.683594 303.484375 L 303.683594 284.269531 C 303.683594 283.027344 304.691406 282.019531 305.933594 282.019531 Z M 305.933594 282.019531 " clip-rule="nonzero"/></clipPath><clipPath id="e83338028c"><path d="M 36 81 L 79.371094 81 L 79.371094 115.90625 L 36 115.90625 Z M 36 81 " clip-rule="nonzero"/></clipPath><clipPath id="b795e6c339"><path d="M 40.53125 81.125 L 74.792969 81.125 C 75.984375 81.125 77.128906 81.597656 77.972656 82.441406 C 78.816406 83.285156 79.292969 84.429688 79.292969 85.625 L 79.292969 111.40625 C 79.292969 112.597656 78.816406 113.742188 77.972656 114.585938 C 77.128906 115.429688 75.984375 115.90625 74.792969 115.90625 L 40.53125 115.90625 C 39.335938 115.90625 38.191406 115.429688 37.347656 114.585938 C 36.503906 113.742188 36.03125 112.597656 36.03125 111.40625 L 36.03125 85.625 C 36.03125 84.429688 36.503906 83.285156 37.347656 82.441406 C 38.191406 81.597656 39.335938 81.125 40.53125 81.125 Z M 40.53125 81.125 " clip-rule="nonzero"/></clipPath><clipPath id="df7bcf806f"><path d="M 44.003906 69.265625 L 70.683594 69.265625 L 70.683594 92.980469 L 44.003906 92.980469 Z M 44.003906 69.265625 " clip-rule="nonzero"/></clipPath><clipPath id="a14decff05"><path d="M 46.253906 69.265625 L 68.414062 69.265625 C 69.65625 69.265625 70.664062 70.273438 70.664062 71.515625 L 70.664062 90.730469 C 70.664062 91.972656 69.65625 92.980469 68.414062 92.980469 L 46.253906 92.980469 C 45.011719 92.980469 44.003906 91.972656 44.003906 90.730469 L 44.003906 71.515625 C 44.003906 70.273438 45.011719 69.265625 46.253906 69.265625 Z M 46.253906 69.265625 " clip-rule="nonzero"/></clipPath><clipPath id="89563da27d"><path d="M 122.53125 81 L 166 81 L 166 115.90625 L 122.53125 115.90625 Z M 122.53125 81 " clip-rule="nonzero"/></clipPath><clipPath id="dcf2360a28"><path d="M 127.167969 81.125 L 161.429688 81.125 C 162.621094 81.125 163.765625 81.597656 164.609375 82.441406 C 165.457031 83.285156 165.929688 84.429688 165.929688 85.625 L 165.929688 111.40625 C 165.929688 112.597656 165.457031 113.742188 164.609375 114.585938 C 163.765625 115.429688 162.621094 115.90625 161.429688 115.90625 L 127.167969 115.90625 C 125.972656 115.90625 124.828125 115.429688 123.984375 114.585938 C 123.140625 113.742188 122.667969 112.597656 122.667969 111.40625 L 122.667969 85.625 C 122.667969 84.429688 123.140625 83.285156 123.984375 82.441406 C 124.828125 81.597656 125.972656 81.125 127.167969 81.125 Z M 127.167969 81.125 " clip-rule="nonzero"/></clipPath><clipPath id="823d662686"><path d="M 130.644531 69.265625 L 157.320312 69.265625 L 157.320312 92.980469 L 130.644531 92.980469 Z M 130.644531 69.265625 " clip-rule="nonzero"/></clipPath><clipPath id="23f2eee177"><path d="M 132.894531 69.265625 L 155.054688 69.265625 C 156.296875 69.265625 157.304688 70.273438 157.304688 71.515625 L 157.304688 90.730469 C 157.304688 91.972656 156.296875 92.980469 155.054688 92.980469 L 132.894531 92.980469 C 131.648438 92.980469 130.644531 91.972656 130.644531 90.730469 L 130.644531 71.515625 C 130.644531 70.273438 131.648438 69.265625 132.894531 69.265625 Z M 132.894531 69.265625 " clip-rule="nonzero"/></clipPath><clipPath id="522ce9a9f6"><path d="M 209.050781 81 L 252.527344 81 L 252.527344 115.90625 L 209.050781 115.90625 Z M 209.050781 81 " clip-rule="nonzero"/></clipPath><clipPath id="1a1cc8270e"><path d="M 213.6875 81.125 L 247.949219 81.125 C 249.144531 81.125 250.289062 81.597656 251.132812 82.441406 C 251.976562 83.285156 252.449219 84.429688 252.449219 85.625 L 252.449219 111.40625 C 252.449219 112.597656 251.976562 113.742188 251.132812 114.585938 C 250.289062 115.429688 249.144531 115.90625 247.949219 115.90625 L 213.6875 115.90625 C 212.496094 115.90625 211.351562 115.429688 210.507812 114.585938 C 209.664062 113.742188 209.1875 112.597656 209.1875 111.40625 L 209.1875 85.625 C 209.1875 84.429688 209.664062 83.285156 210.507812 82.441406 C 211.351562 81.597656 212.496094 81.125 213.6875 81.125 Z M 213.6875 81.125 " clip-rule="nonzero"/></clipPath><clipPath id="612a244523"><path d="M 217.164062 69.265625 L 243.839844 69.265625 L 243.839844 92.980469 L 217.164062 92.980469 Z M 217.164062 69.265625 " clip-rule="nonzero"/></clipPath><clipPath id="0d584b49b6"><path d="M 219.414062 69.265625 L 241.574219 69.265625 C 242.816406 69.265625 243.824219 70.273438 243.824219 71.515625 L 243.824219 90.730469 C 243.824219 91.972656 242.816406 92.980469 241.574219 92.980469 L 219.414062 92.980469 C 218.171875 92.980469 217.164062 91.972656 217.164062 90.730469 L 217.164062 71.515625 C 217.164062 70.273438 218.171875 69.265625 219.414062 69.265625 Z M 219.414062 69.265625 " clip-rule="nonzero"/></clipPath><clipPath id="cf0f28a1a0"><path d="M 295.574219 81 L 339 81 L 339 115.90625 L 295.574219 115.90625 Z M 295.574219 81 " clip-rule="nonzero"/></clipPath><clipPath id="668121b68d"><path d="M 300.207031 81.125 L 334.46875 81.125 C 335.664062 81.125 336.808594 81.597656 337.652344 82.441406 C 338.496094 83.285156 338.96875 84.429688 338.96875 85.625 L 338.96875 111.40625 C 338.96875 112.597656 338.496094 113.742188 337.652344 114.585938 C 336.808594 115.429688 335.664062 115.90625 334.46875 115.90625 L 300.207031 115.90625 C 299.015625 115.90625 297.871094 115.429688 297.027344 114.585938 C 296.183594 113.742188 295.707031 112.597656 295.707031 111.40625 L 295.707031 85.625 C 295.707031 84.429688 296.183594 83.285156 297.027344 82.441406 C 297.871094 81.597656 299.015625 81.125 300.207031 81.125 Z M 300.207031 81.125 " clip-rule="nonzero"/></clipPath><clipPath id="bf3609bff2"><path d="M 2.460938 107.914062 L 372.800781 107.914062 L 372.800781 267.253906 L 2.460938 267.253906 Z M 2.460938 107.914062 " clip-rule="nonzero"/></clipPath><clipPath id="0c4eba87b2"><path d="M 36.960938 107.914062 L 338.039062 107.914062 C 347.1875 107.914062 355.960938 111.546875 362.433594 118.019531 C 368.902344 124.488281 372.539062 133.265625 372.539062 142.414062 L 372.539062 232.753906 C 372.539062 241.902344 368.902344 250.679688 362.433594 257.148438 C 355.960938 263.617188 347.1875 267.253906 338.039062 267.253906 L 36.960938 267.253906 C 27.8125 267.253906 19.039062 263.617188 12.566406 257.148438 C 6.097656 250.679688 2.460938 241.902344 2.460938 232.753906 L 2.460938 142.414062 C 2.460938 133.265625 6.097656 124.488281 12.566406 118.019531 C 19.039062 111.546875 27.8125 107.914062 36.960938 107.914062 Z M 36.960938 107.914062 " clip-rule="nonzero"/></clipPath><clipPath id="d0a152e9a1"><path d="M 2.472656 107.914062 L 372.210938 107.914062 L 372.210938 266.914062 L 2.472656 266.914062 Z M 2.472656 107.914062 " clip-rule="nonzero"/></clipPath><clipPath id="aff0ed0046"><path d="M 36.96875 107.914062 L 338.023438 107.914062 C 347.171875 107.914062 355.945312 111.546875 362.417969 118.019531 C 368.886719 124.488281 372.519531 133.261719 372.519531 142.410156 L 372.519531 232.746094 C 372.519531 241.894531 368.886719 250.667969 362.417969 257.136719 C 355.945312 263.605469 347.171875 267.242188 338.023438 267.242188 L 36.96875 267.242188 C 27.820312 267.242188 19.042969 263.605469 12.574219 257.136719 C 6.105469 250.667969 2.472656 241.894531 2.472656 232.746094 L 2.472656 142.410156 C 2.472656 133.261719 6.105469 124.488281 12.574219 118.019531 C 19.042969 111.546875 27.820312 107.914062 36.96875 107.914062 Z M 36.96875 107.914062 " clip-rule="nonzero"/></clipPath><clipPath id="3d6fee5126"><path d="M 303.683594 69.265625 L 330.359375 69.265625 L 330.359375 92.980469 L 303.683594 92.980469 Z M 303.683594 69.265625 " clip-rule="nonzero"/></clipPath><clipPath id="f264088a7b"><path d="M 305.933594 69.265625 L 328.09375 69.265625 C 329.335938 69.265625 330.34375 70.273438 330.34375 71.515625 L 330.34375 90.730469 C 330.34375 91.972656 329.335938 92.980469 328.09375 92.980469 L 305.933594 92.980469 C 304.691406 92.980469 303.683594 91.972656 303.683594 90.730469 L 303.683594 71.515625 C 303.683594 70.273438 304.691406 69.265625 305.933594 69.265625 Z M 305.933594 69.265625 " clip-rule="nonzero"/></clipPath></defs><g clip-path="url(#d8391af81a)"><g clip-path="url(#d15fbbad91)"><path fill="#727880" d="M 43.570312 283.914062 L 67.261719 283.914062 L 67.261719 304.972656 L 43.570312 304.972656 Z M 43.570312 283.914062 " fill-opacity="1" fill-rule="nonzero"/></g></g><g clip-path="url(#d044988182)"><g clip-path="url(#acba0bb919)"><path fill="#727880" d="M 36.03125 259.09375 L 79.234375 259.09375 L 79.234375 293.875 L 36.03125 293.875 Z M 36.03125 259.09375 " fill-opacity="1" fill-rule="nonzero"/></g></g><g clip-path="url(#e8a72a3d7e)"><g clip-path="url(#97f64cf34a)"><path fill="#727880" d="M 122.667969 259.09375 L 165.871094 259.09375 L 165.871094 293.875 L 122.667969 293.875 Z M 122.667969 259.09375 " fill-opacity="1" fill-rule="nonzero"/></g></g><g clip-path="url(#a5b9a49d94)"><g clip-path="url(#1f80918072)"><path fill="#727880" d="M 130.644531 282.019531 L 157.320312 282.019531 L 157.320312 305.734375 L 130.644531 305.734375 Z M 130.644531 282.019531 " fill-opacity="1" fill-rule="nonzero"/></g></g><g clip-path="url(#059c24bd74)"><g clip-path="url(#7d0d988f9e)"><path fill="#727880" d="M 209.1875 259.09375 L 252.390625 259.09375 L 252.390625 293.875 L 209.1875 293.875 Z M 209.1875 259.09375 " fill-opacity="1" fill-rule="nonzero"/></g></g><g clip-path="url(#bed83787c3)"><g clip-path="url(#5ad6f4399c)"><path fill="#727880" d="M 217.164062 282.019531 L 243.839844 282.019531 L 243.839844 305.734375 L 217.164062 305.734375 Z M 217.164062 282.019531 " fill-opacity="1" fill-rule="nonzero"/></g></g><g clip-path="url(#d47cbaf0b5)"><g clip-path="url(#8bb81caf39)"><path fill="#727880" d="M 295.707031 259.09375 L 338.914062 259.09375 L 338.914062 293.875 L 295.707031 293.875 Z M 295.707031 259.09375 " fill-opacity="1" fill-rule="nonzero"/></g></g><g clip-path="url(#529b7de3d3)"><g clip-path="url(#10aeb6dd43)"><path fill="#727880" d="M 303.683594 282.019531 L 330.359375 282.019531 L 330.359375 305.734375 L 303.683594 305.734375 Z M 303.683594 282.019531 " fill-opacity="1" fill-rule="nonzero"/></g></g><g clip-path="url(#e83338028c)"><g clip-path="url(#b795e6c339)"><path fill="#727880" d="M 36.03125 81.125 L 79.234375 81.125 L 79.234375 115.90625 L 36.03125 115.90625 Z M 36.03125 81.125 " fill-opacity="1" fill-rule="nonzero"/></g></g><g clip-path="url(#df7bcf806f)"><g clip-path="url(#a14decff05)"><path fill="#727880" d="M 44.003906 69.265625 L 70.683594 69.265625 L 70.683594 92.980469 L 44.003906 92.980469 Z M 44.003906 69.265625 " fill-opacity="1" fill-rule="nonzero"/></g></g><g clip-path="url(#89563da27d)"><g clip-path="url(#dcf2360a28)"><path fill="#727880" d="M 122.667969 81.125 L 165.871094 81.125 L 165.871094 115.90625 L 122.667969 115.90625 Z M 122.667969 81.125 " fill-opacity="1" fill-rule="nonzero"/></g></g><g clip-path="url(#823d662686)"><g clip-path="url(#23f2eee177)"><path fill="#727880" d="M 130.644531 69.265625 L 157.320312 69.265625 L 157.320312 92.980469 L 130.644531 92.980469 Z M 130.644531 69.265625 " fill-opacity="1" fill-rule="nonzero"/></g></g><g clip-path="url(#522ce9a9f6)"><g clip-path="url(#1a1cc8270e)"><path fill="#727880" d="M 209.1875 81.125 L 252.390625 81.125 L 252.390625 115.90625 L 209.1875 115.90625 Z M 209.1875 81.125 " fill-opacity="1" fill-rule="nonzero"/></g></g><g clip-path="url(#612a244523)"><g clip-path="url(#0d584b49b6)"><path fill="#727880" d="M 217.164062 69.265625 L 243.839844 69.265625 L 243.839844 92.980469 L 217.164062 92.980469 Z M 217.164062 69.265625 " fill-opacity="1" fill-rule="nonzero"/></g></g><g clip-path="url(#cf0f28a1a0)"><g clip-path="url(#668121b68d)"><path fill="#727880" d="M 295.707031 81.125 L 338.914062 81.125 L 338.914062 115.90625 L 295.707031 115.90625 Z M 295.707031 81.125 " fill-opacity="1" fill-rule="nonzero"/></g></g><g clip-path="url(#bf3609bff2)"><g clip-path="url(#0c4eba87b2)"><path fill="#0e1018" d="M 2.460938 107.914062 L 372.800781 107.914062 L 372.800781 267.253906 L 2.460938 267.253906 Z M 2.460938 107.914062 " fill-opacity="1" fill-rule="nonzero"/></g></g><g clip-path="url(#d0a152e9a1)"><g clip-path="url(#aff0ed0046)"><path stroke-linecap="butt" transform="matrix(0.75, 0, 0, 0.75, 2.470984, 107.913787)" fill="none" stroke-linejoin="miter" d="M 45.997024 0.000366915 L 447.403301 0.000366915 C 459.601218 0.000366915 471.299136 4.844117 479.929344 13.474326 C 488.554345 22.099327 493.398095 33.797244 493.398095 45.995162 L 493.398095 166.443086 C 493.398095 178.641004 488.554345 190.338921 479.929344 198.963922 C 471.299136 207.588922 459.601218 212.437881 447.403301 212.437881 L 45.997024 212.437881 C 33.799107 212.437881 22.095981 207.588922 13.470981 198.963922 C 4.84598 190.338921 0.00222963 178.641004 0.00222963 166.443086 L 0.00222963 45.995162 C 0.00222963 33.797244 4.84598 22.099327 13.470981 13.474326 C 22.095981 4.844117 33.799107 0.000366915 45.997024 0.000366915 Z M 45.997024 0.000366915 " stroke="#00bf63" stroke-width="44" stroke-opacity="1" stroke-miterlimit="4"/></g></g><g clip-path="url(#3d6fee5126)"><g clip-path="url(#f264088a7b)"><path fill="#727880" d="M 303.683594 69.265625 L 330.359375 69.265625 L 330.359375 92.980469 L 303.683594 92.980469 Z M 303.683594 69.265625 " fill-opacity="1" fill-rule="nonzero"/></g></g><g fill="#ffffff" fill-opacity="1"><g transform="translate(87.712681, 216.961906)"><g><path d="M 33.859375 -11.53125 C 35.796875 -11.53125 37.679688 -11.820312 39.515625 -12.40625 C 41.347656 -13 42.695312 -13.566406 43.5625 -14.109375 L 44.84375 -15 L 50.265625 -4.140625 C 50.085938 -4.003906 49.835938 -3.820312 49.515625 -3.59375 C 49.203125 -3.363281 48.46875 -2.941406 47.3125 -2.328125 C 46.164062 -1.722656 44.9375 -1.191406 43.625 -0.734375 C 42.3125 -0.285156 40.59375 0.113281 38.46875 0.46875 C 36.34375 0.832031 34.148438 1.015625 31.890625 1.015625 C 26.679688 1.015625 21.75 -0.257812 17.09375 -2.8125 C 12.4375 -5.375 8.679688 -8.890625 5.828125 -13.359375 C 2.984375 -17.835938 1.5625 -22.679688 1.5625 -27.890625 C 1.5625 -31.816406 2.394531 -35.585938 4.0625 -39.203125 C 5.738281 -42.828125 7.96875 -45.925781 10.75 -48.5 C 13.53125 -51.082031 16.773438 -53.140625 20.484375 -54.671875 C 24.191406 -56.210938 27.992188 -56.984375 31.890625 -56.984375 C 35.503906 -56.984375 38.835938 -56.550781 41.890625 -55.6875 C 44.941406 -54.832031 47.101562 -53.976562 48.375 -53.125 L 50.265625 -51.828125 L 44.84375 -40.984375 C 44.53125 -41.253906 44.054688 -41.578125 43.421875 -41.953125 C 42.785156 -42.335938 41.515625 -42.847656 39.609375 -43.484375 C 37.710938 -44.117188 35.796875 -44.4375 33.859375 -44.4375 C 30.773438 -44.4375 28.007812 -43.9375 25.5625 -42.9375 C 23.125 -41.945312 21.191406 -40.632812 19.765625 -39 C 18.347656 -37.375 17.265625 -35.625 16.515625 -33.75 C 15.773438 -31.875 15.40625 -29.960938 15.40625 -28.015625 C 15.40625 -23.765625 17 -19.953125 20.1875 -16.578125 C 23.375 -13.210938 27.929688 -11.53125 33.859375 -11.53125 Z M 33.859375 -11.53125 "/></g></g></g><g fill="#9c2efa" fill-opacity="1"><g transform="translate(142.25174, 216.961906)"><g><path d="M 24.6875 -56.984375 C 27.71875 -56.984375 30.679688 -56.539062 33.578125 -55.65625 C 36.472656 -54.78125 38.625 -53.910156 40.03125 -53.046875 L 42.0625 -51.703125 L 36.90625 -41.515625 C 36.5 -41.785156 35.929688 -42.132812 35.203125 -42.5625 C 34.484375 -43 33.128906 -43.578125 31.140625 -44.296875 C 29.148438 -45.023438 27.296875 -45.390625 25.578125 -45.390625 C 23.453125 -45.390625 21.8125 -44.9375 20.65625 -44.03125 C 19.5 -43.125 18.921875 -41.898438 18.921875 -40.359375 C 18.921875 -39.597656 19.191406 -38.890625 19.734375 -38.234375 C 20.285156 -37.578125 21.210938 -36.875 22.515625 -36.125 C 23.828125 -35.375 24.984375 -34.773438 25.984375 -34.328125 C 26.984375 -33.878906 28.519531 -33.203125 30.59375 -32.296875 C 34.21875 -30.753906 37.304688 -28.660156 39.859375 -26.015625 C 42.410156 -23.367188 43.6875 -20.375 43.6875 -17.03125 C 43.6875 -13.820312 43.109375 -11.015625 41.953125 -8.609375 C 40.804688 -6.210938 39.222656 -4.335938 37.203125 -2.984375 C 35.191406 -1.628906 32.960938 -0.625 30.515625 0.03125 C 28.078125 0.6875 25.4375 1.015625 22.59375 1.015625 C 20.144531 1.015625 17.742188 0.765625 15.390625 0.265625 C 13.046875 -0.222656 11.082031 -0.84375 9.5 -1.59375 C 7.914062 -2.34375 6.488281 -3.078125 5.21875 -3.796875 C 3.957031 -4.523438 3.03125 -5.132812 2.4375 -5.625 L 1.5625 -6.375 L 7.9375 -17.09375 C 8.476562 -16.644531 9.222656 -16.066406 10.171875 -15.359375 C 11.117188 -14.660156 12.800781 -13.722656 15.21875 -12.546875 C 17.644531 -11.367188 19.785156 -10.78125 21.640625 -10.78125 C 27.023438 -10.78125 29.71875 -12.613281 29.71875 -16.28125 C 29.71875 -17.050781 29.523438 -17.765625 29.140625 -18.421875 C 28.753906 -19.078125 28.070312 -19.734375 27.09375 -20.390625 C 26.125 -21.046875 25.265625 -21.566406 24.515625 -21.953125 C 23.773438 -22.335938 22.554688 -22.925781 20.859375 -23.71875 C 19.160156 -24.507812 17.90625 -25.109375 17.09375 -25.515625 C 13.707031 -27.179688 11.082031 -29.269531 9.21875 -31.78125 C 7.363281 -34.289062 6.4375 -36.992188 6.4375 -39.890625 C 6.4375 -44.910156 8.289062 -49.015625 12 -52.203125 C 15.71875 -55.390625 19.945312 -56.984375 24.6875 -56.984375 Z M 24.6875 -56.984375 "/></g></g></g><g fill="#ffffff" fill-opacity="1"><g transform="translate(191.294709, 216.961906)"><g><path d="M 36.09375 -55.96875 L 36.09375 -44.78125 L 16.828125 -44.78125 L 16.828125 -33.65625 L 35.28125 -33.65625 L 35.28125 -22.453125 L 16.828125 -22.453125 L 16.828125 -11.1875 L 36.09375 -11.1875 L 36.09375 0 L 4.078125 0 L 4.078125 -55.96875 Z M 36.09375 -55.96875 "/></g></g></g><g fill="#ffffff" fill-opacity="1"><g transform="translate(234.094697, 216.961906)"><g><path d="M 32.5 -55.96875 L 55.09375 0 L 41.390625 0 L 37.25 -11.1875 L 15.9375 -11.1875 L 11.8125 0 L -1.90625 0 L 20.6875 -55.96875 Z M 32.90625 -22.390625 L 26.65625 -38.671875 L 26.53125 -38.671875 L 20.28125 -22.390625 Z M 32.90625 -22.390625 "/></g></g></g></svg>